<svg xmlns="http://www.w3.org/2000/svg" xmlns:xlink="http://www.w3.org/1999/xlink" viewBox="0 0 33 37"><defs><style>.cls-1,.cls-5{fill:none;}.cls-1{clip-rule:evenodd;}.cls-2{fill:#089847;}.cls-2,.cls-4{fill-rule:evenodd;}.cls-3{clip-path:url(#clip-path);}.cls-4{fill:#fff;}</style><clipPath id="clip-path"><path class="cls-1" d="M5.79.67H27.13a5.63,5.63,0,0,1,5.62,5.62V27.63a5.63,5.63,0,0,1-5.62,5.62H5.79A5.63,5.63,0,0,1,.17,27.63V6.29A5.63,5.63,0,0,1,5.79.67"/></clipPath></defs><title>cell</title><g id="Layer_2" data-name="Layer 2"><g id="Layer_1-2" data-name="Layer 1"><path class="cls-2" d="M5.79.67H27.13a5.63,5.63,0,0,1,5.62,5.62V27.63a5.63,5.63,0,0,1-5.62,5.62H5.79A5.63,5.63,0,0,1,.17,27.63V6.29A5.63,5.63,0,0,1,5.79.67"/><g class="cls-3"><path class="cls-4" d="M3.42,9.82V11c0,.09.14,1.12.18,1.35a11.35,11.35,0,0,0,.29,1.2,15.33,15.33,0,0,0,.88,2.16A22.51,22.51,0,0,0,7.2,19.39c.5.58.91,1.1,1.39,1.65.11.12.27.26.39.41l1.09,1.16c.26.27.49.51.77.77l1.6,1.45a22.06,22.06,0,0,0,8.85,4.8c3.59.8,5.21.24,7.71-2.29a2.1,2.1,0,0,0,.2-2.44c-.17-.27-1.33-1.4-1.65-1.72-.76-.78-1.43-1.41-2.27-2.27s-1.93-1.42-3.11-.53c-.48.36-2,2.07-2.29,2.21l-1.45-.83a18,18,0,0,1-5.86-5.39,23.28,23.28,0,0,1-1.68-2.83c.2-.16.38-.37.59-.57.41-.4,1.41-1.38,1.66-1.71a2.16,2.16,0,0,0,.33-1.82,2.83,2.83,0,0,0-.94-1.3c-1.07-1-2.25-2.27-3.37-3.37A2.15,2.15,0,0,0,7.71,4c-1.83-.1-3.37,2.2-3.9,3.76a14.79,14.79,0,0,0-.39,2.09"/></g><rect id="_Slice_" data-name="&lt;Slice&gt;" class="cls-5" width="33" height="37"/></g></g></svg>