<svg xmlns="http://www.w3.org/2000/svg" viewBox="0 0 157 35.36"><defs><style>.cls-1,.cls-3{fill:#fff;}.cls-1,.cls-2{fill-rule:evenodd;}.cls-2{fill:#009ee3;}.cls-4{fill:none;}</style></defs><title>contact</title><g id="Layer_2" data-name="Layer 2"><g id="Layer_1-2" data-name="Layer 1"><path class="cls-1" d="M28.65,10.64a2.8,2.8,0,1,1-2.8,2.8,2.8,2.8,0,0,1,2.8-2.8M28,18.15h1.54l.48,3.4-1.27,1.16-1.23-1.16Zm.61-11.3A9.65,9.65,0,0,1,37.12,21.1h0a9.64,9.64,0,0,1-1,1.49,58.38,58.38,0,0,1-7.43,8.56,47.11,47.11,0,0,1-7.84-9,9.68,9.68,0,0,1-.56-.86h0A9.65,9.65,0,0,1,28.65,6.84Zm0,2.56a7.08,7.08,0,0,1,4.59,12.47L32,18.28c-.23-.66-.58-1.28-1.28-1.28H26.84c-.7,0-1,.62-1.28,1.28L24.24,22A7.08,7.08,0,0,1,28.65,9.4Z"/><path class="cls-1" d="M28.79,1.06A17.16,17.16,0,0,1,45.2,13.22H41.79a13.92,13.92,0,1,0,.11,9.68h3.39A17.15,17.15,0,1,1,28.79,1.06"/><path class="cls-2" d="M46.8,9.51H150.23a5.82,5.82,0,0,1,5.8,5.8v7.28a5.83,5.83,0,0,1-5.8,5.8H46A20,20,0,0,0,46.8,9.51m-39.69,0h3.75a20,20,0,0,0,.82,18.88H7.11a5.82,5.82,0,0,1-5.8-5.8V15.31A5.82,5.82,0,0,1,7.11,9.51Z"/><path class="cls-3" d="M145.59,23.68a7.06,7.06,0,0,0,2.94.62c2.92,0,4.28-1.48,4.28-3.21,0-1.4-.82-2.36-2.61-3-1.26-.48-1.8-.68-1.8-1.19s.45-.74,1.26-.74a5.23,5.23,0,0,1,2.18.47l.56-2.14a6.47,6.47,0,0,0-2.72-.52c-2.52,0-4,1.37-4,3.13,0,1.48,1.11,2.42,2.81,3,1.13.39,1.57.67,1.57,1.16s-.45.82-1.37.82a6.08,6.08,0,0,1-2.6-.62Zm-6-7.59c1.29,0,2.06,1.31,2.06,3s-.76,3.06-2,3.06-2.11-1.16-2.11-3S138.32,16.1,139.59,16.1Zm0-2.12a4.9,4.9,0,0,0-5,5.22c0,2.78,1.71,5.11,4.81,5.11s5-2,5-5.27C144.49,16.37,142.86,14,139.64,14ZM127.06,24.14V21.68c0-1.62,0-3.13-.09-4.48h0a37.15,37.15,0,0,0,1.69,3.62l1.69,3.32h2.82v-10h-2.45V16.5a37.84,37.84,0,0,0,.21,4.22h0a29.28,29.28,0,0,0-1.57-3.5l-1.59-3.07h-3.16v10Zm-4.36-6.2h-3.59V16.32h3.81V14.14h-6.5v10h6.71v-2.2h-4V20.11h3.59Zm-12.8,6.2h2.69V16.38h2.6V14.14h-7.84v2.24h2.55ZM106,21.78a5.53,5.53,0,0,1-1.8.3,2.71,2.71,0,0,1-2.92-3,2.71,2.71,0,0,1,2.88-3,4.88,4.88,0,0,1,1.86.36l.52-2.11a6,6,0,0,0-2.51-.45c-3,0-5.57,1.8-5.57,5.33,0,2.66,1.65,5,5.39,5a6.77,6.77,0,0,0,2.52-.42ZM92.3,19.84l.43-1.78c.15-.56.3-1.4.45-2h0c.15.59.34,1.41.49,2l.46,1.8Zm2.23,2,.64,2.32h2.89l-3-10H91.51l-2.91,10h2.78l.56-2.32ZM83.84,24.14h2.69V16.38h2.6V14.14H81.29v2.24h2.55Zm-10,0V21.68c0-1.62,0-3.13-.09-4.48h0a37.15,37.15,0,0,0,1.69,3.62l1.69,3.32H80v-10H77.59V16.5a37.87,37.87,0,0,0,.21,4.22h0a29.27,29.27,0,0,0-1.57-3.5l-1.59-3.07H71.43v10Zm-8.77-8c1.29,0,2.06,1.31,2.06,3s-.76,3.06-2,3.06S63,21,63,19.16,63.83,16.1,65.11,16.1Zm0-2.12a4.9,4.9,0,0,0-5,5.22c0,2.78,1.71,5.11,4.81,5.11s5-2,5-5.27C70,16.37,68.37,14,65.15,14Zm-5.88,7.81a5.53,5.53,0,0,1-1.8.3,2.71,2.71,0,0,1-2.92-3,2.71,2.71,0,0,1,2.88-3,4.88,4.88,0,0,1,1.86.36l.52-2.11A6,6,0,0,0,57.3,14c-3,0-5.57,1.8-5.57,5.33,0,2.66,1.65,5,5.39,5a6.77,6.77,0,0,0,2.52-.42Z"/><rect id="_Slice_" data-name="&lt;Slice&gt;" class="cls-4" width="157" height="35"/></g></g></svg>