<?xml-stylesheet type="text/css" href="../css/style.css" ?>
<svg xmlns="http://www.w3.org/2000/svg" viewBox="0 0 154.72 34.3"><defs>
        <style>            
            .icon-contact-d1, .icon-contact-d3{
                fill: #fff;
            }
            .icon-contact-d1, .icon-contact-d2{
                fill-rule: evenodd;
            }
            .icon-contact-d2{
                fill: #009de2;
            }
        </style>
    </defs>
    <title>contact_1</title>
    <g id="Layer_2" data-name="Layer 2"><g id="Layer_1-2" data-name="Layer 1"><path class="icon-contact-d1" d="M27.34,9.58a2.8,2.8,0,1,1-2.8,2.8,2.8,2.8,0,0,1,2.8-2.8m-.61,7.51h1.54l.48,3.4-1.27,1.16-1.23-1.16ZM28.44,5.85A9.65,9.65,0,0,1,35.81,20h0a9.64,9.64,0,0,1-1,1.49,58.38,58.38,0,0,1-7.43,8.56,47.11,47.11,0,0,1-7.84-9,9.68,9.68,0,0,1-.56-.86h0A9.65,9.65,0,0,1,28.44,5.85Zm.33,2.64a7.08,7.08,0,0,1,3.17,12.34l-1.44-4.09a1.17,1.17,0,0,0-1.11-.78H25.53a1.26,1.26,0,0,0-1.11.78L22.93,21A7.09,7.09,0,0,1,28.76,8.49Z"/><path class="icon-contact-d1" d="M27.48,0A17.16,17.16,0,0,1,43.89,12.17H40.48a13.92,13.92,0,1,0,.11,9.68H44A17.15,17.15,0,1,1,27.48,0"/><path class="icon-contact-d2" d="M45.49,8.45H148.92a5.82,5.82,0,0,1,5.8,5.8v7.28a5.83,5.83,0,0,1-5.8,5.8H44.67a20,20,0,0,0,.82-18.88M5.8,8.45H9.55a20,20,0,0,0,.82,18.88H5.8A5.82,5.82,0,0,1,0,21.53V14.25A5.82,5.82,0,0,1,5.8,8.45Z"/><path class="icon-contact-d3" d="M144.28,22.63a7.06,7.06,0,0,0,2.94.62c2.92,0,4.28-1.48,4.28-3.21,0-1.4-.82-2.36-2.61-3-1.26-.48-1.8-.68-1.8-1.19s.45-.74,1.26-.74a5.23,5.23,0,0,1,2.18.47l.56-2.14a6.47,6.47,0,0,0-2.72-.52c-2.52,0-4,1.37-4,3.13,0,1.48,1.11,2.42,2.81,3,1.13.39,1.57.67,1.57,1.16s-.45.82-1.37.82a6.08,6.08,0,0,1-2.6-.62Zm-6-7.59c1.29,0,2.06,1.31,2.06,3s-.76,3.06-2,3.06-2.11-1.16-2.11-3S137,15,138.28,15Zm0-2.12a4.9,4.9,0,0,0-5,5.22c0,2.78,1.71,5.11,4.81,5.11s5-2,5-5.27C143.18,15.31,141.55,12.92,138.33,12.92ZM125.75,23.09V20.62c0-1.62,0-3.13-.09-4.48h0a37.15,37.15,0,0,0,1.69,3.62l1.69,3.32h2.82v-10h-2.45v2.36a37.84,37.84,0,0,0,.21,4.22h0a29.28,29.28,0,0,0-1.57-3.5l-1.59-3.07H123.3v10Zm-4.36-6.2H117.8V15.27h3.81V13.08h-6.5v10h6.71v-2.2h-4V19.05h3.59Zm-12.8,6.2h2.69V15.32h2.6V13.08H106v2.24h2.55Zm-3.87-2.36a5.53,5.53,0,0,1-1.8.3,2.71,2.71,0,0,1-2.92-3,2.71,2.71,0,0,1,2.88-3,4.88,4.88,0,0,1,1.86.36l.52-2.11a6,6,0,0,0-2.51-.45c-3,0-5.57,1.8-5.57,5.33,0,2.66,1.65,5,5.39,5a6.77,6.77,0,0,0,2.52-.42ZM91,18.78,91.42,17c.15-.56.3-1.4.45-2h0c.15.59.34,1.41.49,2l.46,1.8Zm2.23,2,.64,2.32h2.89l-3-10H90.2l-2.91,10h2.78l.56-2.32ZM82.53,23.09h2.69V15.32h2.6V13.08H80v2.24h2.55Zm-10,0V20.62c0-1.62,0-3.13-.09-4.48h0a37.15,37.15,0,0,0,1.69,3.62l1.69,3.32h2.82v-10H76.28v2.36a37.87,37.87,0,0,0,.21,4.22h0a29.27,29.27,0,0,0-1.57-3.5l-1.59-3.07H70.12v10ZM63.8,15c1.29,0,2.06,1.31,2.06,3s-.76,3.06-2,3.06S61.7,20,61.7,18.1,62.52,15,63.8,15Zm0-2.12a4.9,4.9,0,0,0-5,5.22c0,2.78,1.71,5.11,4.81,5.11s5-2,5-5.27C68.69,15.31,67.06,12.92,63.84,12.92ZM58,20.73a5.53,5.53,0,0,1-1.8.3,2.71,2.71,0,0,1-2.92-3,2.71,2.71,0,0,1,2.88-3,4.88,4.88,0,0,1,1.86.36l.52-2.11A6,6,0,0,0,56,12.92c-3,0-5.57,1.8-5.57,5.33,0,2.66,1.65,5,5.39,5a6.77,6.77,0,0,0,2.52-.42Z"/></g></g></svg>