<svg xmlns="http://www.w3.org/2000/svg" xmlns:xlink="http://www.w3.org/1999/xlink" viewBox="0 0 19.32 19.32"><defs><style>.cls-1{fill:none;clip-rule:evenodd;}.cls-2{fill:#afca1f;}.cls-2,.cls-4{fill-rule:evenodd;}.cls-3{clip-path:url(#clip-path);}.cls-4{fill:#fff;}</style><clipPath id="clip-path"><path class="cls-1" d="M4.1,4H15.22A2.08,2.08,0,0,1,17.3,6.11v7.1a2.08,2.08,0,0,1-2.07,2.07H4.1A2.08,2.08,0,0,1,2,13.21V6.11A2.08,2.08,0,0,1,4.1,4"/></clipPath></defs><title>email</title><g id="Layer_2" data-name="Layer 2"><g id="Layer_1-2" data-name="Layer 1"><path class="cls-2" d="M3.33,0H16a3.34,3.34,0,0,1,3.33,3.33V16A3.34,3.34,0,0,1,16,19.32H3.33A3.34,3.34,0,0,1,0,16V3.33A3.34,3.34,0,0,1,3.33,0"/><g class="cls-3"><path class="cls-4" d="M17.3,13.79V5.56L17,4.81,12.23,9c1.59,1.8,3.2,3.58,4.79,5.38.19-.21.15-.37.27-.6M7.75,9.65C7.3,10,4.8,13,4.07,13.75a13.91,13.91,0,0,0-1.22,1.41,3.34,3.34,0,0,0,1.53.24h8.75a9.15,9.15,0,0,0,3.24-.24L11.47,9.65c-.27.24-1.6,1.46-1.89,1.44A10.78,10.78,0,0,1,7.75,9.65ZM1.92,5.52v8.27c.12.23.08.39.27.6L7,8.92,2.18,4.81Zm13.53-.67a8.1,8.1,0,0,0,.8-.69,1.74,1.74,0,0,0-1.08-.27H4A1.73,1.73,0,0,0,3,4.15L9.56,10C11.56,8.29,13.49,6.57,15.46,4.85Z"/></g></g></g></svg>