<svg xmlns="http://www.w3.org/2000/svg" xmlns:xlink="http://www.w3.org/1999/xlink" viewBox="0 0 19.34 19.52"><defs><style>.cls-1{fill:none;clip-rule:evenodd;}.cls-2{fill:#264795;}.cls-2,.cls-4{fill-rule:evenodd;}.cls-3{clip-path:url(#clip-path);}.cls-4{fill:#fff;}</style><clipPath id="clip-path"><path class="cls-1" d="M3.33,0H16a3.34,3.34,0,0,1,3.33,3.33V16A3.34,3.34,0,0,1,16,19.34H3.33A3.34,3.34,0,0,1,0,16V3.33A3.34,3.34,0,0,1,3.33,0"/></clipPath></defs><title>face</title><g id="Layer_2" data-name="Layer 2"><g id="Layer_1-2" data-name="Layer 1"><path class="cls-2" d="M3.33,0H16a3.34,3.34,0,0,1,3.33,3.33V16A3.34,3.34,0,0,1,16,19.34H3.33A3.34,3.34,0,0,1,0,16V3.33A3.34,3.34,0,0,1,3.33,0"/><g class="cls-3"><path class="cls-4" d="M10.76,19.52h3.36v-9h2.45l.29-2.86,0-.21c-.36,0-2.62,0-2.77,0a9.26,9.26,0,0,1,0-1.92c0-.61.36-.82.95-.85s1.33.05,1.78,0V1.57h-3c-.22.12-2.1,0-2.73,1.75a5.64,5.64,0,0,0-.33,1.89c0,.52,0,1.9,0,2.23H8.53v3.09h2.24Z"/><path class="cls-4" d="M16.86,7.68a.27.27,0,0,0,0-.24H14.15a18.69,18.69,0,0,1,0-1.9,9.26,9.26,0,0,0,0,1.92c.14.06,2.4,0,2.77,0Z"/></g></g></g></svg>