<svg xmlns="http://www.w3.org/2000/svg" xmlns:xlink="http://www.w3.org/1999/xlink" viewBox="0 0 33 34"><defs><style>.cls-1,.cls-5{fill:none;}.cls-1{clip-rule:evenodd;}.cls-2{fill:#ffcd00;}.cls-2,.cls-4{fill-rule:evenodd;}.cls-3{clip-path:url(#clip-path);}.cls-4{fill:#fff;}</style><clipPath id="clip-path"><path class="cls-1" d="M5.66,1H27a5.63,5.63,0,0,1,5.62,5.62V28A5.63,5.63,0,0,1,27,33.59H5.66A5.63,5.63,0,0,1,0,28V6.63A5.63,5.63,0,0,1,5.66,1"/></clipPath></defs><title>gps</title><g id="Layer_2" data-name="Layer 2"><g id="Layer_1-2" data-name="Layer 1"><path class="cls-2" d="M5.66,1H27a5.63,5.63,0,0,1,5.62,5.62V28A5.63,5.63,0,0,1,27,33.59H5.66A5.63,5.63,0,0,1,0,28V6.63A5.63,5.63,0,0,1,5.66,1"/><g class="cls-3"><path class="cls-4" d="M15.84,9.17a4.5,4.5,0,0,0-1.76.55A4.64,4.64,0,0,0,11.7,14.3a4.65,4.65,0,1,0,4.14-5.13m1.22-5.69H15.67a22.44,22.44,0,0,0-2.52.5A10.28,10.28,0,0,0,8,7.72a9.35,9.35,0,0,0-1.28,9.2C8.65,21.48,11.85,25.7,15,29.53c.21.26,1.17,1.44,1.37,1.6.32-.25,2.58-3.11,2.71-3.28s.45-.55.67-.84l1.88-2.55c.4-.56.78-1.14,1.19-1.77a32.58,32.58,0,0,0,3.13-5.75,8.39,8.39,0,0,0,.55-5.07,10,10,0,0,0-1.79-4.14A10.23,10.23,0,0,0,19.53,4a9.31,9.31,0,0,0-1.85-.41l-.31,0-.28,0S17.08,3.48,17.06,3.48ZM15.6,6.7a7.21,7.21,0,0,1,5.34,1.66A7.13,7.13,0,0,1,23,16.15a7.61,7.61,0,0,1-1.29,2.25c-.17.18-.3.33-.45.47a7,7,0,0,1-4.19,2,7.37,7.37,0,0,1-5.4-1.66,7.13,7.13,0,0,1-.79-10,7.28,7.28,0,0,1,2-1.61A7.48,7.48,0,0,1,15.6,6.7Z"/></g><rect id="_Slice_" data-name="&lt;Slice&gt;" class="cls-5" width="33" height="34"/></g></g></svg>