<svg xmlns="http://www.w3.org/2000/svg" viewBox="0 0 38 36"><defs><style>.cls-1{fill:#279cd8;fill-rule:evenodd;}.cls-2{fill:none;}</style></defs><title>ico-5</title><g id="Layer_2" data-name="Layer 2"><g id="Layer_1-2" data-name="Layer 1"><path class="cls-1" d="M33.38,29.38c-.59,1.24-3.21,3.2-4.53,4-6.74,4.13-13.46,3-19.31-1.08A18.62,18.62,0,0,1,2.78,22.14,23.48,23.48,0,0,1,3.91,7.6,7.61,7.61,0,0,0,6.26,8.82a6.5,6.5,0,0,0,3.25-.39l5.37-1.88c-.34.21-.8.43-1.15.61a12.64,12.64,0,0,0-1.16.75c-7.4,5.16-6.7,18-.34,22.87,4.51,3.46,9.18,3.75,14.5,2.06,3.81-1.29,5.23-2.25,6.65-3.46"/><path class="cls-1" d="M10.33,5l2.06-1.51a16.71,16.71,0,0,1,8.44-2.25A16.92,16.92,0,0,1,31.34,4.91a15.14,15.14,0,0,1,3.4,3.69,16.63,16.63,0,0,1,2.83,11.17c-.1.93-.84,4.81-1.65,5.64.16-.82.52-1.62.72-2.61A16.81,16.81,0,0,0,36.13,14,17.17,17.17,0,0,0,12.55,3.77c-.81.36-1.59,1-2.23,1.22"/><path class="cls-1" d="M18.92,10.73Q13.54,12.39,12.27,15A3.43,3.43,0,0,0,9.8,16.8a5,5,0,0,0,3.28-.27q4.49,2.75,11.87,1.66Q25,19.37,26.56,20a2.1,2.1,0,0,0,.9-1.93,7.49,7.49,0,0,0,4.09-3.33,2.84,2.84,0,0,0,2.29-.49,1.84,1.84,0,0,0-2.34-1Q28,8.44,18.92,10.73m-5.37,6.64a5.16,5.16,0,0,0-1.17,1.54A3.43,3.43,0,0,0,9.9,20.67a5,5,0,0,0,3.28-.27q4.49,2.75,11.87,1.66.07,1.18,1.62,1.8a2.1,2.1,0,0,0,.9-1.93,7.48,7.48,0,0,0,4.09-3.33,2.84,2.84,0,0,0,2.29-.49,1.84,1.84,0,0,0-2.34-1,7.61,7.61,0,0,0-.63-.76,8.3,8.3,0,0,1-3,2.05,2.53,2.53,0,0,1-1.11,2l-.22.15-.25-.1a2.91,2.91,0,0,1-1.84-1.7C20.85,19.25,16.89,19.12,13.55,17.38Zm-.7,3.72A5.73,5.73,0,0,0,12,22.5a3.51,3.51,0,0,0-2.47,2,4.38,4.38,0,0,0,3.28-.31q4.49,3.18,11.87,1.92a2.4,2.4,0,0,0,1.62,2.08A2.59,2.59,0,0,0,27.2,26a7.84,7.84,0,0,0,4.09-3.85,2.55,2.55,0,0,0,2.29-.57q-.84-1.69-2.34-1.14l-.14-.21a8.29,8.29,0,0,1-3,2.07,2.53,2.53,0,0,1-1.11,2l-.22.15-.25-.1a2.91,2.91,0,0,1-1.84-1.7c-3.87.51-8,.35-11.48-1.65Z"/><rect id="_Slice_" data-name="&lt;Slice&gt;" class="cls-2" width="38" height="36"/></g></g></svg>