<svg xmlns="http://www.w3.org/2000/svg" viewBox="0 0 41 38"><defs><style>.cls-1{fill:#91c02d;fill-rule:evenodd;}.cls-2{fill:none;}</style></defs><title>ico-4</title><g id="Layer_2" data-name="Layer 2"><g id="Layer_1-2" data-name="Layer 1"><path class="cls-1" d="M35.73,29c-.59,1.23-3.2,3.19-4.51,4C24.5,37.09,17.8,36,12,31.9A18.55,18.55,0,0,1,5.24,21.76,23.39,23.39,0,0,1,6.36,7.27,7.58,7.58,0,0,0,8.7,8.48a6.47,6.47,0,0,0,3.24-.38l5.35-1.87c-.34.21-.8.42-1.15.61A12.53,12.53,0,0,0,15,7.58c-7.38,5.14-6.68,17.94-.34,22.79,4.5,3.44,9.14,3.73,14.45,2.06,3.8-1.28,5.21-2.25,6.62-3.45"/><path class="cls-1" d="M12.75,4.67l2.05-1.5A16.65,16.65,0,0,1,23.22.93,16.86,16.86,0,0,1,33.7,4.59a15.08,15.08,0,0,1,3.39,3.68,16.57,16.57,0,0,1,2.82,11.13c-.1.92-.84,4.8-1.65,5.62.16-.82.51-1.62.72-2.6a16.76,16.76,0,0,0-.51-8.79A17.11,17.11,0,0,0,15,3.46c-.81.36-1.58,1-2.22,1.22"/><path class="cls-1" d="M25.85,15.7c-.25.76,1.85-.39.55-.19-.1,0,.09.15-.45.13a.29.29,0,0,0-.11.06"/><path class="cls-1" d="M23.36,15.69c-.43,1.24.93-.11,0,0,0,0,0,0,0,0"/><path class="cls-1" d="M24.29,15.18s-.41.72.57.22c.39-.2-.48-.6-.55-.22h0"/><path class="cls-1" d="M24.41,16.27c-.32.34.26.39.43.4,0,0,.07-.57-.41-.41Z"/><path class="cls-1" d="M25.29,16.77c1.22-.48.06-.39.06-.36-.25.17-.27.44-.06.36"/><path class="cls-1" d="M14.23,20.38c-.79,0,.61.91.44.23,0-.19-.44-.23-.44-.23"/><path class="cls-1" d="M12,19c-.29.27.32.57.32.06-.06,0-.26-.11-.32-.06"/><path class="cls-1" d="M12.11,18.1s.29.5.34.17a.26.26,0,0,0-.34-.3.65.65,0,0,1,0,.13"/><path class="cls-1" d="M12.7,18.82c-.12.78,1.12,0,0,0"/><path class="cls-1" d="M15.33,19.76s-.31.53.25.53c.33,0,1.35.16.41-.51,0,0-.68-.07-.65,0"/><path class="cls-1" d="M37.21,19c-.18.37,0,.37.36.51.1,0,.19-.37-.07-.41l-.28-.1"/><path class="cls-1" d="M37.67,17.84c-.34,0-.75.07-.75.45,0,0,1,.82,1-.09,0,0-.19-.35-.28-.36"/><path class="cls-1" d="M33.43,21.21c-.22,1.15,1.22-.48.11-.1,0,0-.1.08-.11.1"/><path class="cls-1" d="M33.46,20.2c-.37.74,1.52,1,1,0-.11-.19-.93,0-1,0"/><path class="cls-1" d="M36.12,19.84c-.19,0-.41.81.56,0,.05,0,.09-.19,0-.19,0-.17-.49-.2-.64,0,0,0,0,.21,0,.21"/><path class="cls-1" d="M34.92,21.22c-.13.53-.57.85.91.73,0,0,1.06-.46.24-.87-1.1-.55-.28-.05-1.11.09,0,0,0,0,0,.05"/><path class="cls-1" d="M32.19,21.81c-.17.53,1,.43.27-.09-.21-.15-.26.06-.27.09"/><path class="cls-1" d="M17.81,11.25c.63.79,1.16,1.84,2,2.28a4.52,4.52,0,0,0,1.26.64c.18.87.53-.08.7.43,2.77.71,0,.71.27,1.21a10.51,10.51,0,0,0-.66,1,7.3,7.3,0,0,1-.5.73,2.12,2.12,0,0,1-.68.57l-.24.14c-.13.09-.25.18-.39.26a5.39,5.39,0,0,1-.83.35l-.37.13,0,.16h-.16a.82.82,0,0,0-.55.32,7.33,7.33,0,0,0-1.57.78c0-.19.12-.47-.73-.43-.1,0-1.76-.67-2.26-.82,0,0-1.86-2.22-1-2.63a22.61,22.61,0,0,0,4.51-3.52,13.75,13.75,0,0,1,1.27-1.55"/><path class="cls-1" d="M30.56,12.9c.63.79.82,1.52,1.66,2a4.52,4.52,0,0,0,1.26.64c.18.87.53-.08.7.43,2.53.87,2,2,2.95,2,0,2.29.63.85-.52,1.64-.36.25-.76-.16-.91.53-1.64.55-.59.83-1.33.3-.54-.39.49.67-.9.64a3.63,3.63,0,0,1-1.1.33s-1.31,1.11-1.09.1c-.45-.43-.92.44-1.09-.59-.08,0-.21.1-.36.25l-.55-.36c-.63-.42-1.26-.85-1.87-1.29s-1.24-.91-1.83-1.4c-.15-.13-.52-.42-.74-.66,1.23-.76,4.19-2.84,4.52-3.45a6.83,6.83,0,0,1,1.2-1.07"/><path class="cls-1" d="M15.07,21.1c-.52.39.74.91.67.19,0-.18-.35-.09-.6-.21,0,0-.06,0-.07,0"/><path class="cls-1" d="M13.6,23.29c-.36.16-.68.39-.2.62.08,0,.91.32,1,.12.27-.72-.09-.76-.74-.79,0,0,0,0,0,0"/><path class="cls-1" d="M20.11,27.3s-.25.46.31.31c0,0-.31-.5-.31-.31"/><path class="cls-1" d="M15.71,25.82c-.22,1,1.4.56.55,0-.1-.06-.53-.14-.55,0"/><path class="cls-1" d="M18,25.6c-.08.12-.35.09-.55.49-.29.57,1.16.29.63-.46l-.09,0"/><path class="cls-1" d="M30.27,22.84c-.06.5,1.22.36.82.08-.61-.42-.65-.16-.73-.15s-.1.07-.1.07"/><path class="cls-1" d="M30.17,25.27c-.72.39.19,1.07.42.47s-.33-.52-.42-.47"/><path class="cls-1" d="M28.79,25.22c-.29.06-.42,1,.44.41.25-.18.39.19.21-.35-.38,0-.16.12-.38,0l-.27-.05"/><path class="cls-1" d="M26.07,26.55c-.21.11-.47.26-.27.53a.36.36,0,0,0,.64-.2c0-.05.5-.07.08-.36a4.18,4.18,0,0,0-.46,0"/><path class="cls-1" d="M28.2,26.68c0,.09-.27.18-.2.36.12,0,.64,0,.37-.31,0-.06-.19,0-.16,0"/><path class="cls-1" d="M22.75,16c-.78,1-1.17,2.15-2.22,2.7a5.6,5.6,0,0,1-1.56.79c-.22,1.08-.65-.1-.87.53-3.14,1.08-2.47,2.45-3.65,2.45,0,2.83-.78,1.05.64,2,.45.31.94-.2,1.13.66,2,.68.73,1,1.64.38.67-.48-.61.83,1.11.79a4.51,4.51,0,0,0,1.37.41s1.63,1.37,1.35.12c.55-.53,1.14.54,1.34-.73.32-.05,1.34,1.63,1.93,1,.66.1-.54-.79,1.12-.73.12,0,2.18-.82,2.8-1,0,0,2.3-2.74,1.28-3.25s-5.63-3.7-6.09-4.55A11.73,11.73,0,0,0,22.75,16"/><rect id="_Slice_" data-name="&lt;Slice&gt;" class="cls-2" width="41" height="38"/></g></g></svg>