<svg xmlns="http://www.w3.org/2000/svg" xmlns:xlink="http://www.w3.org/1999/xlink" viewBox="0 0 19.34 19.34"><defs><style>.cls-1{fill:none;clip-rule:evenodd;}.cls-2{fill:#e41a4b;}.cls-2,.cls-4{fill-rule:evenodd;}.cls-3{clip-path:url(#clip-path);}.cls-4{fill:#fff;}</style><clipPath id="clip-path"><path class="cls-1" d="M3.33,0H16a3.34,3.34,0,0,1,3.33,3.33V16A3.34,3.34,0,0,1,16,19.34H3.33A3.34,3.34,0,0,1,0,16V3.33A3.34,3.34,0,0,1,3.33,0"/></clipPath></defs><title>instagram</title><g id="Layer_2" data-name="Layer 2"><g id="Layer_1-2" data-name="Layer 1"><path class="cls-2" d="M3.33,0H16a3.34,3.34,0,0,1,3.33,3.33V16A3.34,3.34,0,0,1,16,19.34H3.33A3.34,3.34,0,0,1,0,16V3.33A3.34,3.34,0,0,1,3.33,0"/><g class="cls-3"><path class="cls-4" d="M12.85,5.65a.93.93,0,0,0,1.85-.17.93.93,0,0,0-1.85.17m.7,4.78a3.95,3.95,0,1,0-7,1.62A3.94,3.94,0,0,0,13.54,10.43Zm-1.37-.28a2.55,2.55,0,1,1-2-3A2.55,2.55,0,0,1,12.17,10.16ZM2,12.55a5.4,5.4,0,0,0,.84,3A4,4,0,0,0,5.1,17.12a14.67,14.67,0,0,0,3.59.24c2,0,5.27.3,6.86-.84a4,4,0,0,0,1.56-2.27,14.59,14.59,0,0,0,.25-3.59c0-3.49.54-7.42-3.14-8.43-1.45-.4-5.64-.28-7.37-.21-2.21.09-4,.75-4.64,3.13A14.72,14.72,0,0,0,2,8.71C2,9.88,1.9,11.41,2,12.55ZM7,3.41c.93-.09,2.15,0,3.12,0,1.8,0,4.14-.24,5.19,1.15A4.23,4.23,0,0,1,15.94,7c.07,1,0,2.14,0,3.15,0,3.47.32,5.59-3.62,5.8-1,.05-2.13,0-3.16,0-1.94,0-4.08.24-5.17-1.15-.87-1.11-.65-4.05-.65-5.61a29.59,29.59,0,0,1,.08-3.09A2.86,2.86,0,0,1,4.51,4,4.1,4.1,0,0,1,7,3.41Z"/></g></g></g></svg>