<svg xmlns="http://www.w3.org/2000/svg" viewBox="0 0 35.57 34.75"><defs><style>.cls-1{fill:#5db9a5;fill-rule:evenodd;}</style></defs><title>logo-premezclas</title><g id="Layer_2" data-name="Layer 2"><g id="Layer_1-2" data-name="Layer 1"><path class="cls-1" d="M31.28,28.15c-.59,1.24-3.21,3.2-4.53,4-6.74,4.13-13.46,3-19.31-1.08A18.61,18.61,0,0,1,.68,20.91,23.47,23.47,0,0,1,1.81,6.37,7.6,7.6,0,0,0,4.16,7.58,6.49,6.49,0,0,0,7.41,7.2l5.37-1.88c-.34.21-.8.43-1.15.61a12.57,12.57,0,0,0-1.16.75c-7.4,5.16-6.7,18-.34,22.87,4.51,3.46,9.18,3.75,14.5,2.06,3.81-1.29,5.23-2.25,6.65-3.46"/><path class="cls-1" d="M8.22,3.76l2.06-1.51A16.7,16.7,0,0,1,18.73,0,16.92,16.92,0,0,1,29.24,3.67a15.14,15.14,0,0,1,3.4,3.69,16.63,16.63,0,0,1,2.83,11.17c-.1.93-.84,4.81-1.65,5.63.16-.82.52-1.62.72-2.61A16.81,16.81,0,0,0,34,12.74,17.17,17.17,0,0,0,10.45,2.54c-.81.36-1.59,1-2.23,1.22"/><path class="cls-1" d="M25.06,21.52l-1.82-.65c-1.18-2.13-1-4.53,1.13-5.81l1.45.05c-1.2.51-1.64,2-1.61,3.43a6.41,6.41,0,0,0,.47,2.3,3.21,3.21,0,0,0,.39.68M10.53,13.19l7.81-.13v1.76L10.55,14ZM31.6,18.06S27.85,16.58,28,16.59c-2.63,0-1.76,4.53-.56,4.28l3.9-.51C32,20.13,32.22,18.4,31.6,18.06Zm.67-.56s-5.35-2.2-5.07-2.19c-3.75-.07-2.5,6.72-.8,6.36L32,20.91C32.87,20.57,33.15,18,32.27,17.5ZM19.41,19.76V20h.66a1.12,1.12,0,0,0,.3-.11.87.87,0,0,0-.35-.29.85.85,0,0,0-.6,0Zm.08.87h-.07v0h0l0,2.81h.14a4.13,4.13,0,0,0,1-1.17l.08-.13.15,0a2.12,2.12,0,0,0,.73,0A1.25,1.25,0,0,0,21.8,22a1,1,0,0,0-.41-.34,1,1,0,0,0-.67,0l-.15,0-.1-.13v0h0v0h0v0h0v0h0v0h0v0h0v0h0v0h0v0h0v0h0v0h0v0l0,0h0l0,0h0l0,0,0,0h0l0,0h0l0,0h-.43Zm.07-11.08-.14,9.71,0,0a1.22,1.22,0,0,1,.75.06,1.45,1.45,0,0,1,.68.65l.09.16-.15.12a1.51,1.51,0,0,1-.66.31h.06l0,0h.13l0,0h.19l0,0h.15a1.33,1.33,0,0,1,.83.06,1.58,1.58,0,0,1,.73.7l.09.16-.15.12a1.64,1.64,0,0,1-.71.34,2.44,2.44,0,0,1-.74,0,4.57,4.57,0,0,1-1,1.17h-.43l0,2.27,7.33-2.67,1.56.42,3-2,0-.84-4.69.65a.89.89,0,0,1-.26,0c-.6-.06-1-.68-1.22-1.17a5.93,5.93,0,0,1-.47-2.22c-.14-1.58.63-4,3-3.37L27.62,11ZM17.94,25.67l.89.62,0-1.88h-.5a1.69,1.69,0,0,1-.15.64h-.27Zm.92-1.77,0-2.53m-5.18,1.36,2.4,1.67m-3.24-4.26h0ZM11,20.85l2,1.43h2.53l.24,0v.25a.72.72,0,0,0,.19.45,1.43,1.43,0,0,0,.47.32.87.87,0,0,0,.22-.29h0a1.2,1.2,0,0,0,.1-.54V22.1L17,22a4.51,4.51,0,0,0,1.3-.72h.62v-.4H17.57a10.88,10.88,0,0,0-4.7.32H11Zm-.94-1.59,0,.95.5.35h.26l0,0h.43l0,0h1.38a11.3,11.3,0,0,1,4.89-.33H18l.06,0h0l.06,0h.79v-.42h0l0,0h0l0,0h0l0,0,0,0h0l0,0h0l0,0h0l0,0h0l0,0h0l0,0h0l0,0h0l0,0,0,0h0l0,0h0l0,0h0l0,0h0l0,0h0l0,0h0l0,0h0l0,0h0l0,0h0l0,0h0l0,0h0l0,0h0l0,0h0l0,0H18l0,0h0l-.06,0h0l0,0h0l0,0h-.15l0,0h0l0,0h0l0,0H17.3l0,0h-.71a9.87,9.87,0,0,0-4.26.29l-.16.05H10.87l0,0h0l0,0h-.1l0,0,0,0h0l0,0h0l0,0h0l0,0h0l0,0h0l-.05,0h0l0,0h0l0,0h0l0,0h0l0,0h0Zm-.16-8,.15,7.47h.17l.06,0h1.88a10.29,10.29,0,0,1,4.45-.3h1l0,0h.11l0,0h0l0,0H18l0,0h0l0,0h0l0,0h0l0,0h0l0,0h0l0,0h.07l0,0h0l0,0h0l0,0h0l0,0h0l0,0h0l0,0h0l0,0h0l0,0h0l0,0h0l0,0h0l0,0h0l0,0h0l0,0h0l0,0h0l0,0h0l0,0h0l0,0,.13-9.12Z"/><path class="cls-1" d="M19.49,20.63a4.17,4.17,0,0,1-.92,1,4.88,4.88,0,0,1-1.28.74,1.54,1.54,0,0,1-.14.58h0a1.33,1.33,0,0,1-.47.54l-.1.07-.11,0a2,2,0,0,1-.75-.49,1.16,1.16,0,0,1-.27-.48,13.24,13.24,0,0,1-3.6,0,8.15,8.15,0,0,1-2.41-.7,2.88,2.88,0,0,0-.56.78l0,.1-.1,0a2.51,2.51,0,0,0-.88.37,1.61,1.61,0,0,0-.34.32,4.17,4.17,0,0,0,.8,0,1.77,1.77,0,0,0,.75-.21l.12-.07.11.07a8.13,8.13,0,0,0,3.16,1.08,14.38,14.38,0,0,0,4.08-.08l.24,0v.25a.81.81,0,0,0,.22.51,1.61,1.61,0,0,0,.54.37,1,1,0,0,0,.26-.34,1.34,1.34,0,0,0,.11-.6v-.16l.15-.06a5,5,0,0,0,1.44-.8,4.13,4.13,0,0,0,1-1.17l.08-.13.15,0a2.12,2.12,0,0,0,.73,0A1.25,1.25,0,0,0,21.8,22a1,1,0,0,0-.41-.34,1,1,0,0,0-.67,0l-.15,0-.1-.13a4.35,4.35,0,0,0-1-1m-9.67,1a7.83,7.83,0,0,0,2.1.58,13,13,0,0,0,3.7-.07l.24,0v.25a.72.72,0,0,0,.19.45,1.43,1.43,0,0,0,.47.32.87.87,0,0,0,.22-.29h0a1.2,1.2,0,0,0,.1-.54V22.1L17,22a4.51,4.51,0,0,0,1.3-.72,3.74,3.74,0,0,0,.82-.94,5,5,0,0,0-1.54-.57,10.88,10.88,0,0,0-4.7.32h0a10.72,10.72,0,0,0-2.64,1.16Q10,21.44,9.81,21.6Z"/><path class="cls-1" d="M12.29,18.33q-2.93.91-3.61,2.32l0,.1-.1,0a2.26,2.26,0,0,0-.79.34,1.44,1.44,0,0,0-.28.26,3.69,3.69,0,0,0,.69,0h0a1.59,1.59,0,0,0,.68-.19l.12-.07.11.07a7.37,7.37,0,0,0,2.86,1,13,13,0,0,0,3.7-.07l.24,0v.25a.72.72,0,0,0,.19.45,1.43,1.43,0,0,0,.47.32.87.87,0,0,0,.22-.29h0a1.2,1.2,0,0,0,.1-.54V22.1L17,22a4.51,4.51,0,0,0,1.3-.72,3.74,3.74,0,0,0,.89-1.06l.08-.13.15,0a1.92,1.92,0,0,0,.66,0,1.12,1.12,0,0,0,.3-.11.87.87,0,0,0-.35-.29.85.85,0,0,0-.6,0l-.15,0-.1-.13A4.07,4.07,0,0,0,16.55,18a9.87,9.87,0,0,0-4.26.29"/></g></g></svg>