<svg xmlns="http://www.w3.org/2000/svg" viewBox="0 0 115 46"><defs><style>.cls-1,.cls-2{fill:#fff;}.cls-1{fill-rule:evenodd;}.cls-3{fill:none;}</style></defs><title>logo_1</title><g id="Layer_2" data-name="Layer 2"><g id="Layer_1-2" data-name="Layer 1"><path class="cls-1" d="M52,21,46.49,8.48a3.36,3.36,0,0,0,0-3.85,3.15,3.15,0,0,0-1.29,3.8c-3.07,3.37-6.39,6.4-11.21,7.39-.79-1.18-2.13-1.5-3.9-1.14a3.15,3.15,0,0,0,3.38,2.16l2,8.78A12.09,12.09,0,1,1,52,21M41.47,1.08A14,14,0,0,1,52.41,23.9a8.71,8.71,0,0,0-2.14-3.67,7.27,7.27,0,0,0-5.3-2,7.44,7.44,0,0,0-6.59,3.33,13.36,13.36,0,0,0-2.1,6.58,14,14,0,0,1,5.2-27.07Z"/><path class="cls-2" d="M52.3,28V39.32H49.74a13.58,13.58,0,0,0-.69-2.12,5.27,5.27,0,0,1-4.71,2.43,6.6,6.6,0,0,1-5.44-2.73,11.7,11.7,0,0,1-2.13-7.4,13.43,13.43,0,0,1,2.06-7.62A6.9,6.9,0,0,1,45,18.78a6.72,6.72,0,0,1,4.92,1.83,9.17,9.17,0,0,1,2.42,5.22l-5.08.59q-.38-3.15-2.35-3.15-2.6,0-2.59,5.81,0,3.51.83,4.63a2.45,2.45,0,0,0,2,1.12,2.2,2.2,0,0,0,1.63-.68,2.58,2.58,0,0,0,.68-1.87H44.59V28ZM36,28.51v10.3H32.76V28.51ZM25.38,36.45h.83a1.6,1.6,0,0,0,1.33-.76,3.52,3.52,0,0,0,.55-2.08,3.76,3.76,0,0,0-.48-1.95,1.54,1.54,0,0,0-1.4-.82h-.83Zm-3.19,2.36V28.51h4a4.84,4.84,0,0,1,3.92,1.54,5.36,5.36,0,0,1,1.3,3.56A5.18,5.18,0,0,1,30,37.37a4.81,4.81,0,0,1-3.62,1.44ZM14.8,36.45h.83A1.6,1.6,0,0,0,17,35.69a3.52,3.52,0,0,0,.55-2.08A3.76,3.76,0,0,0,17,31.66a1.54,1.54,0,0,0-1.4-.82H14.8ZM11.6,38.81V28.51h4a4.84,4.84,0,0,1,3.92,1.54,5.36,5.36,0,0,1,1.3,3.56,5.18,5.18,0,0,1-1.4,3.75,4.81,4.81,0,0,1-3.62,1.44Zm-7-4.28H6.25l-.83-3Zm2.82,4.28-.57-2H4l-.61,2H.81L4,28.51H7.4l3.27,10.3Zm81.43-3,2.93-.53a1.74,1.74,0,0,0,1.9,1.25q1.19,0,1.19-.63a.58.58,0,0,0-.28-.51,2.87,2.87,0,0,0-1-.33,6.74,6.74,0,0,1-3.47-1.35,2.82,2.82,0,0,1-.77-2,3.08,3.08,0,0,1,1.1-2.42,4.68,4.68,0,0,1,3.18-1,4,4,0,0,1,4.15,2.53l-2.61.79a1.6,1.6,0,0,0-1.65-1q-1,0-1,.64a.51.51,0,0,0,.23.45,2.84,2.84,0,0,0,.9.3,18.9,18.9,0,0,1,2.63.68,2.76,2.76,0,0,1,1.29,1,2.9,2.9,0,0,1,.52,1.72A3.05,3.05,0,0,1,96.81,38a5.31,5.31,0,0,1-3.33,1Q89.73,39,88.85,35.82Zm-.73,3H85.54l-2.83-4.54a15.11,15.11,0,0,1-1.08-2.14,7.11,7.11,0,0,1,.25,1.69v5H79.32V28.51h3l2.4,3.77a14.18,14.18,0,0,1,1.08,2,14.88,14.88,0,0,1-.24-2.7v-3h2.58ZM77.53,28.51v10.3H74.36V28.51Zm-10.12,6h1.65l-.83-3Zm2.8,4.28-.57-2h-2.8l-.61,2H63.66l3.19-10.3h3.34l3.24,10.3ZM57,32.68h1.35a1.65,1.65,0,0,0,1-.25.84.84,0,0,0,.36-.74q0-1-1.21-1H57Zm6,6.13h-3.5L58,34.87H57v3.94H53.86V28.51h5.38a4.15,4.15,0,0,1,2.76.83,2.74,2.74,0,0,1,1,2.2,3.31,3.31,0,0,1-.36,1.57,3,3,0,0,1-1.47,1.2Zm49.86-.19v-1h1v1Zm-2.43-2.07-.71-1.93L109,36.56Zm1.89,2.07h-1.12l-.44-1.19h-2.05l-.42,1.19h-1.1l2-5.21h1.09Zm-6.61,0v-1h1v1Zm-1.87-1.92,1,.31a2.32,2.32,0,0,1-.77,1.28,2.15,2.15,0,0,1-1.36.42,2.18,2.18,0,0,1-1.68-.71,2.75,2.75,0,0,1-.66-1.94,2.89,2.89,0,0,1,.66-2,2.24,2.24,0,0,1,1.73-.72,2.1,2.1,0,0,1,1.52.57,2.06,2.06,0,0,1,.52,1l-1,.25a1.11,1.11,0,0,0-.38-.64,1.08,1.08,0,0,0-.7-.23,1.15,1.15,0,0,0-.92.42,2.06,2.06,0,0,0-.35,1.35,2.21,2.21,0,0,0,.35,1.4,1.13,1.13,0,0,0,.91.42,1,1,0,0,0,.71-.27A1.56,1.56,0,0,0,103.86,36.7Zm-5.29.92h1v.71a2.54,2.54,0,0,1-.07.68,1,1,0,0,1-.28.45,1.42,1.42,0,0,1-.52.31l-.19-.41a.82.82,0,0,0,.42-.27.84.84,0,0,0,.13-.48h-.47Z"/><path class="cls-2" d="M112.41,44.3a.57.57,0,0,0,.06.26.44.44,0,0,0,.19.19.55.55,0,0,0,.27.07.5.5,0,0,0,.37-.14.49.49,0,0,0,.14-.36.5.5,0,0,0-.15-.37.51.51,0,0,0-.37-.15.49.49,0,0,0-.36.14.49.49,0,0,0-.14.36m.1-1.17a.4.4,0,0,0,.11.29.41.41,0,0,0,.3.11.4.4,0,0,0,.29-.11.37.37,0,0,0,.11-.28.39.39,0,0,0-.12-.29.4.4,0,0,0-.29-.12.4.4,0,0,0-.29.11A.37.37,0,0,0,112.51,43.14Zm.06.53a.58.58,0,0,1-.29-.2.53.53,0,0,1-.09-.31.61.61,0,0,1,.2-.46.83.83,0,0,1,1.06,0,.62.62,0,0,1,.2.47.52.52,0,0,1-.09.31.57.57,0,0,1-.28.2.64.64,0,0,1,.47.65.72.72,0,0,1-.23.54.93.93,0,0,1-1.2,0,.74.74,0,0,1-.23-.55.66.66,0,0,1,.13-.41A.62.62,0,0,1,112.57,43.66Zm-1.69.61V44h1v.31Zm-1.6-.49a1.58,1.58,0,0,0,.14.83.42.42,0,0,0,.72,0,2.43,2.43,0,0,0,0-1.65.43.43,0,0,0-.36-.2.4.4,0,0,0-.34.18A1.6,1.6,0,0,0,109.28,43.79Zm-.32,0a2.33,2.33,0,0,1,.09-.72.89.89,0,0,1,.27-.42.7.7,0,0,1,.46-.15.74.74,0,0,1,.36.08.67.67,0,0,1,.25.24,1.26,1.26,0,0,1,.15.37,2.47,2.47,0,0,1,.06.6,2.33,2.33,0,0,1-.09.72.89.89,0,0,1-.27.42.77.77,0,0,1-1-.11A1.67,1.67,0,0,1,109,43.79Zm-1.64,0a1.58,1.58,0,0,0,.14.83.42.42,0,0,0,.72,0,2.43,2.43,0,0,0,0-1.65.43.43,0,0,0-.36-.2.4.4,0,0,0-.34.18A1.6,1.6,0,0,0,107.32,43.79Zm-.32,0a2.33,2.33,0,0,1,.09-.72.89.89,0,0,1,.27-.42.7.7,0,0,1,.46-.15.74.74,0,0,1,.36.08.67.67,0,0,1,.25.24,1.26,1.26,0,0,1,.15.37,2.47,2.47,0,0,1,.06.6,2.33,2.33,0,0,1-.09.72.89.89,0,0,1-.27.42.77.77,0,0,1-1-.11A1.67,1.67,0,0,1,107,43.79Zm-1.64,0a1.58,1.58,0,0,0,.14.83.42.42,0,0,0,.72,0,2.43,2.43,0,0,0,0-1.65.43.43,0,0,0-.36-.2.4.4,0,0,0-.34.18A1.6,1.6,0,0,0,105.37,43.79Zm-.32,0a2.33,2.33,0,0,1,.09-.72.89.89,0,0,1,.27-.42.7.7,0,0,1,.46-.15.74.74,0,0,1,.36.08.67.67,0,0,1,.25.24,1.26,1.26,0,0,1,.15.37,2.47,2.47,0,0,1,.06.6,2.33,2.33,0,0,1-.09.72.89.89,0,0,1-.27.42.77.77,0,0,1-1-.11A1.67,1.67,0,0,1,105.05,43.79Zm-.8,1.24h-.31v-2a1.56,1.56,0,0,1-.29.21,2.09,2.09,0,0,1-.33.16v-.3a1.84,1.84,0,0,0,.45-.3,1.16,1.16,0,0,0,.28-.34h.2Zm-3.1-2.19v-.3h1.63v.24a3.44,3.44,0,0,0-.48.68,4.15,4.15,0,0,0-.37.87,3.26,3.26,0,0,0-.12.69h-.32a3.1,3.1,0,0,1,.12-.72,3.79,3.79,0,0,1,.32-.81,3.47,3.47,0,0,1,.44-.66ZM99.49,44.3a.57.57,0,0,0,.06.26.43.43,0,0,0,.19.19.55.55,0,0,0,.27.07.5.5,0,0,0,.37-.14.49.49,0,0,0,.14-.36.5.5,0,0,0-.15-.37.51.51,0,0,0-.37-.15.49.49,0,0,0-.36.14A.49.49,0,0,0,99.49,44.3Zm.1-1.17a.4.4,0,0,0,.11.29.41.41,0,0,0,.3.11.4.4,0,0,0,.29-.11.37.37,0,0,0,.11-.28.39.39,0,0,0-.12-.29.4.4,0,0,0-.29-.12.4.4,0,0,0-.29.11A.37.37,0,0,0,99.59,43.14Zm.06.53a.58.58,0,0,1-.29-.2.53.53,0,0,1-.09-.31.61.61,0,0,1,.2-.46.83.83,0,0,1,1.06,0,.62.62,0,0,1,.2.47.52.52,0,0,1-.09.31.57.57,0,0,1-.28.2.64.64,0,0,1,.47.65.72.72,0,0,1-.23.54.93.93,0,0,1-1.2,0,.74.74,0,0,1-.23-.55.66.66,0,0,1,.13-.41A.62.62,0,0,1,99.65,43.66Zm-2.12.12a1.58,1.58,0,0,0,.14.83.42.42,0,0,0,.72,0,2.43,2.43,0,0,0,0-1.65.43.43,0,0,0-.36-.2.4.4,0,0,0-.34.18A1.6,1.6,0,0,0,97.54,43.79Zm-.32,0a2.32,2.32,0,0,1,.09-.72.89.89,0,0,1,.27-.42A.7.7,0,0,1,98,42.5a.74.74,0,0,1,.36.08.67.67,0,0,1,.25.24,1.26,1.26,0,0,1,.15.37,2.46,2.46,0,0,1,.06.6,2.33,2.33,0,0,1-.09.72.88.88,0,0,1-.27.42.77.77,0,0,1-1-.11A1.67,1.67,0,0,1,97.22,43.79Zm-2,.57.31,0a.69.69,0,0,0,.18.38.45.45,0,0,0,.31.12.5.5,0,0,0,.37-.15.51.51,0,0,0,.15-.37.47.47,0,0,0-.14-.35.48.48,0,0,0-.35-.14l-.22,0,0-.27h0a.64.64,0,0,0,.36-.1.35.35,0,0,0,.16-.32.38.38,0,0,0-.12-.28.41.41,0,0,0-.3-.11.42.42,0,0,0-.3.11.58.58,0,0,0-.15.34l-.31-.06a.8.8,0,0,1,.26-.48.74.74,0,0,1,.5-.17.82.82,0,0,1,.38.09.64.64,0,0,1,.27.24.62.62,0,0,1,.09.32.53.53,0,0,1-.09.3.6.6,0,0,1-.26.21.58.58,0,0,1,.35.21.65.65,0,0,1,.12.41.75.75,0,0,1-.24.56.85.85,0,0,1-.61.23.79.79,0,0,1-.55-.2A.76.76,0,0,1,95.26,44.36Zm-1.21-.09V44h1v.31Zm-1.77,0,.3,0a.65.65,0,0,0,.11.4.34.34,0,0,0,.27.11.4.4,0,0,0,.22-.06.3.3,0,0,0,.13-.16,1,1,0,0,0,0-.32V42.51h.33v1.72a1.25,1.25,0,0,1-.08.49.55.55,0,0,1-.24.26.8.8,0,0,1-.39.09.66.66,0,0,1-.51-.19A.79.79,0,0,1,92.28,44.31Z"/><rect id="_Slice_" data-name="&lt;Slice&gt;" class="cls-3" width="115" height="46"/></g></g></svg>