<svg xmlns="http://www.w3.org/2000/svg" viewBox="0 0 112.94 43.99"><defs><style>.cls-1,.cls-3{fill:#fff;}.cls-1,.cls-2{fill-rule:evenodd;}.cls-2{fill:#f96712;}</style></defs><title>Asset 1</title><g id="Layer_2" data-name="Layer 2"><g id="Layer_1-2" data-name="Layer 1"><path class="cls-1" d="M51.22,19.91,45.68,7.39a3.36,3.36,0,0,0,0-3.85,3.15,3.15,0,0,0-1.29,3.8c-3.07,3.37-6.39,6.4-11.21,7.39-.79-1.18-2.13-1.5-3.9-1.14a3.15,3.15,0,0,0,3.38,2.16l2,8.78a12.09,12.09,0,1,1,16.56-4.62M40.65,0A14,14,0,0,1,51.59,22.82a8.71,8.71,0,0,0-2.14-3.67,7.27,7.27,0,0,0-5.3-2,7.44,7.44,0,0,0-6.59,3.33,13.36,13.36,0,0,0-2.1,6.58A14,14,0,0,1,40.65,0Z"/><path class="cls-2" d="M44.9,8.38,50,19.7a7.45,7.45,0,0,0-.51-.55,7.27,7.27,0,0,0-5.3-2,7.44,7.44,0,0,0-6.59,3.33,12.42,12.42,0,0,0-1.8,4.37l-2.07-9.17c4.16-1,7.84-3.62,11.22-7.31"/><path class="cls-3" d="M51.49,26.89V38.24H48.92a13.58,13.58,0,0,0-.69-2.12,5.27,5.27,0,0,1-4.71,2.43,6.6,6.6,0,0,1-5.44-2.73A11.7,11.7,0,0,1,36,28.41,13.43,13.43,0,0,1,38,20.79a6.9,6.9,0,0,1,6.14-3.09,6.72,6.72,0,0,1,4.92,1.83,9.17,9.17,0,0,1,2.42,5.22l-5.08.59q-.38-3.15-2.35-3.15-2.6,0-2.59,5.81,0,3.51.83,4.63a2.45,2.45,0,0,0,2,1.12,2.2,2.2,0,0,0,1.63-.68,2.58,2.58,0,0,0,.68-1.87H43.77V26.89Zm-16.35.54v10.3H31.95V27.43ZM24.56,35.37h.83a1.6,1.6,0,0,0,1.33-.76,3.52,3.52,0,0,0,.55-2.08,3.76,3.76,0,0,0-.48-1.95,1.54,1.54,0,0,0-1.4-.82h-.83Zm-3.19,2.36V27.43h4A4.84,4.84,0,0,1,29.3,29a5.36,5.36,0,0,1,1.3,3.56,5.18,5.18,0,0,1-1.4,3.75,4.81,4.81,0,0,1-3.62,1.44ZM14,35.37h.83a1.6,1.6,0,0,0,1.33-.76,3.52,3.52,0,0,0,.55-2.08,3.76,3.76,0,0,0-.48-1.95,1.54,1.54,0,0,0-1.4-.82H14Zm-3.19,2.36V27.43h4A4.84,4.84,0,0,1,18.73,29,5.36,5.36,0,0,1,20,32.53a5.18,5.18,0,0,1-1.4,3.75A4.81,4.81,0,0,1,15,37.73Zm-7-4.28H5.44l-.83-3ZM6.6,37.73l-.57-2H3.2l-.61,2H0l3.21-10.3H6.58l3.27,10.3Zm81.43-3L91,34.21a1.74,1.74,0,0,0,1.9,1.25q1.19,0,1.19-.63a.58.58,0,0,0-.28-.51,2.87,2.87,0,0,0-1-.33,6.74,6.74,0,0,1-3.47-1.35,2.82,2.82,0,0,1-.77-2,3.08,3.08,0,0,1,1.1-2.42,4.68,4.68,0,0,1,3.18-1A4,4,0,0,1,97,29.8l-2.61.79a1.6,1.6,0,0,0-1.65-1q-1,0-1,.64a.51.51,0,0,0,.23.45,2.84,2.84,0,0,0,.9.3,18.9,18.9,0,0,1,2.63.68,2.76,2.76,0,0,1,1.29,1,2.9,2.9,0,0,1,.52,1.72A3.05,3.05,0,0,1,96,36.91a5.31,5.31,0,0,1-3.33,1Q88.91,37.88,88,34.74Zm-.73,3H84.73L81.9,33.19A15.11,15.11,0,0,1,80.82,31a7.11,7.11,0,0,1,.25,1.69v5H78.5V27.43h3l2.4,3.77a14.18,14.18,0,0,1,1.08,2,14.88,14.88,0,0,1-.24-2.7v-3h2.58ZM76.71,27.43v10.3H73.55V27.43Zm-10.12,6h1.65l-.83-3Zm2.8,4.28-.57-2H66l-.61,2H62.85L66,27.43h3.34l3.24,10.3ZM56.21,31.6h1.35a1.65,1.65,0,0,0,1-.25.84.84,0,0,0,.36-.74q0-1-1.21-1H56.21Zm6,6.13H58.7l-1.52-3.94h-1v3.94H53V27.43h5.38a4.15,4.15,0,0,1,2.76.83,2.74,2.74,0,0,1,1,2.2A3.31,3.31,0,0,1,61.81,32a3,3,0,0,1-1.47,1.2Zm47.43-2.26-.71-1.93-.69,1.93Zm1.89,2.07h-1.12L110,36.35h-2.05l-.42,1.19h-1.1l2-5.21h1.09Zm-6.61,0v-1h1v1ZM103,35.62l1,.31a2.32,2.32,0,0,1-.77,1.28,2.15,2.15,0,0,1-1.36.42,2.18,2.18,0,0,1-1.68-.71A2.75,2.75,0,0,1,99.59,35a2.89,2.89,0,0,1,.66-2,2.24,2.24,0,0,1,1.73-.72,2.1,2.1,0,0,1,1.52.57,2.06,2.06,0,0,1,.52,1L103,34a1.11,1.11,0,0,0-.38-.64,1.08,1.08,0,0,0-.7-.23,1.15,1.15,0,0,0-.92.42,2.06,2.06,0,0,0-.35,1.35,2.21,2.21,0,0,0,.35,1.4,1.13,1.13,0,0,0,.91.42,1,1,0,0,0,.71-.27A1.56,1.56,0,0,0,103,35.62Zm-5.29.92h1v.71a2.54,2.54,0,0,1-.07.68,1,1,0,0,1-.28.45,1.42,1.42,0,0,1-.52.31l-.19-.41a.82.82,0,0,0,.42-.27.84.84,0,0,0,.13-.48h-.47Z"/><path class="cls-3" d="M111.59,43.22a.57.57,0,0,0,.06.26.44.44,0,0,0,.19.19.55.55,0,0,0,.27.07.5.5,0,0,0,.37-.14.49.49,0,0,0,.14-.36.5.5,0,0,0-.15-.37.51.51,0,0,0-.37-.15.49.49,0,0,0-.36.14.49.49,0,0,0-.14.36m.1-1.17a.4.4,0,0,0,.11.29.41.41,0,0,0,.3.11.4.4,0,0,0,.29-.11.37.37,0,0,0,.11-.28.39.39,0,0,0-.12-.29.4.4,0,0,0-.29-.12.4.4,0,0,0-.29.11A.37.37,0,0,0,111.7,42.06Zm.06.53a.58.58,0,0,1-.29-.2.53.53,0,0,1-.09-.31.61.61,0,0,1,.2-.46.83.83,0,0,1,1.06,0,.62.62,0,0,1,.2.47.52.52,0,0,1-.09.31.57.57,0,0,1-.28.2.64.64,0,0,1,.47.65.72.72,0,0,1-.23.54.93.93,0,0,1-1.2,0,.74.74,0,0,1-.23-.55.66.66,0,0,1,.13-.41A.62.62,0,0,1,111.76,42.58Zm-1.69.61v-.31h1v.31Zm-1.6-.49a1.58,1.58,0,0,0,.14.83.42.42,0,0,0,.72,0,2.43,2.43,0,0,0,0-1.65.43.43,0,0,0-.36-.2.4.4,0,0,0-.34.18A1.6,1.6,0,0,0,108.47,42.71Zm-.32,0a2.33,2.33,0,0,1,.09-.72.89.89,0,0,1,.27-.42.7.7,0,0,1,.46-.15.74.74,0,0,1,.36.08.67.67,0,0,1,.25.24,1.26,1.26,0,0,1,.15.37,2.47,2.47,0,0,1,.06.6,2.33,2.33,0,0,1-.09.72.89.89,0,0,1-.27.42.77.77,0,0,1-1-.11A1.67,1.67,0,0,1,108.15,42.7Zm-1.64,0a1.58,1.58,0,0,0,.14.83.42.42,0,0,0,.72,0,2.43,2.43,0,0,0,0-1.65.43.43,0,0,0-.36-.2.4.4,0,0,0-.34.18A1.6,1.6,0,0,0,106.51,42.71Zm-.32,0a2.33,2.33,0,0,1,.09-.72.89.89,0,0,1,.27-.42.7.7,0,0,1,.46-.15.74.74,0,0,1,.36.08.67.67,0,0,1,.25.24,1.26,1.26,0,0,1,.15.37,2.47,2.47,0,0,1,.06.6,2.33,2.33,0,0,1-.09.72.89.89,0,0,1-.27.42.77.77,0,0,1-1-.11A1.67,1.67,0,0,1,106.19,42.7Zm-1.64,0a1.58,1.58,0,0,0,.14.83.42.42,0,0,0,.72,0,2.43,2.43,0,0,0,0-1.65.43.43,0,0,0-.36-.2.4.4,0,0,0-.34.18A1.6,1.6,0,0,0,104.55,42.71Zm-.32,0a2.33,2.33,0,0,1,.09-.72.89.89,0,0,1,.27-.42.7.7,0,0,1,.46-.15.74.74,0,0,1,.36.08.67.67,0,0,1,.25.24,1.26,1.26,0,0,1,.15.37,2.47,2.47,0,0,1,.06.6,2.33,2.33,0,0,1-.09.72.89.89,0,0,1-.27.42.77.77,0,0,1-1-.11A1.67,1.67,0,0,1,104.24,42.7Zm-.8,1.24h-.31V42a1.56,1.56,0,0,1-.29.21,2.09,2.09,0,0,1-.33.16v-.3a1.84,1.84,0,0,0,.45-.3,1.16,1.16,0,0,0,.28-.34h.2Zm-3.1-2.19v-.3H102v.24a3.44,3.44,0,0,0-.48.68,4.15,4.15,0,0,0-.37.87,3.26,3.26,0,0,0-.12.69h-.32a3.1,3.1,0,0,1,.12-.72,3.79,3.79,0,0,1,.32-.81,3.47,3.47,0,0,1,.44-.66Zm-1.66,1.47a.57.57,0,0,0,.06.26.43.43,0,0,0,.19.19.55.55,0,0,0,.27.07.5.5,0,0,0,.37-.14.49.49,0,0,0,.14-.36.5.5,0,0,0-.15-.37.51.51,0,0,0-.37-.15.49.49,0,0,0-.36.14A.49.49,0,0,0,98.68,43.22Zm.1-1.17a.4.4,0,0,0,.11.29.41.41,0,0,0,.3.11.4.4,0,0,0,.29-.11.37.37,0,0,0,.11-.28.39.39,0,0,0-.12-.29.4.4,0,0,0-.29-.12.4.4,0,0,0-.29.11A.37.37,0,0,0,98.78,42.06Zm.06.53a.58.58,0,0,1-.29-.2.53.53,0,0,1-.09-.31.61.61,0,0,1,.2-.46.83.83,0,0,1,1.06,0,.62.62,0,0,1,.2.47.52.52,0,0,1-.09.31.57.57,0,0,1-.28.2.64.64,0,0,1,.47.65.72.72,0,0,1-.23.54.93.93,0,0,1-1.2,0,.74.74,0,0,1-.23-.55.66.66,0,0,1,.13-.41A.62.62,0,0,1,98.84,42.58Zm-2.12.12a1.58,1.58,0,0,0,.14.83.42.42,0,0,0,.72,0,2.43,2.43,0,0,0,0-1.65.43.43,0,0,0-.36-.2.4.4,0,0,0-.34.18A1.6,1.6,0,0,0,96.72,42.71Zm-.32,0A2.32,2.32,0,0,1,96.5,42a.89.89,0,0,1,.27-.42.7.7,0,0,1,.46-.15.74.74,0,0,1,.36.08.67.67,0,0,1,.25.24,1.26,1.26,0,0,1,.15.37,2.46,2.46,0,0,1,.06.6,2.33,2.33,0,0,1-.09.72.88.88,0,0,1-.27.42.77.77,0,0,1-1-.11A1.67,1.67,0,0,1,96.41,42.7Zm-2,.57.31,0a.69.69,0,0,0,.18.38.45.45,0,0,0,.31.12.5.5,0,0,0,.37-.15.51.51,0,0,0,.15-.37.47.47,0,0,0-.14-.35.48.48,0,0,0-.35-.14l-.22,0,0-.27h0a.64.64,0,0,0,.36-.1.35.35,0,0,0,.16-.32.38.38,0,0,0-.12-.28.41.41,0,0,0-.3-.11.42.42,0,0,0-.3.11.58.58,0,0,0-.15.34l-.31-.06a.8.8,0,0,1,.26-.48.74.74,0,0,1,.5-.17.82.82,0,0,1,.38.09.64.64,0,0,1,.27.24.62.62,0,0,1,.09.32.53.53,0,0,1-.09.3.6.6,0,0,1-.26.21.58.58,0,0,1,.35.21.65.65,0,0,1,.12.41.75.75,0,0,1-.24.56.85.85,0,0,1-.61.23.79.79,0,0,1-.55-.2A.76.76,0,0,1,94.45,43.28Zm-1.21-.09v-.31h1v.31Z"/></g></g></svg>