<svg xmlns="http://www.w3.org/2000/svg" viewBox="0 0 35.44 34.62"><defs><style>.cls-1{fill:#00af52;fill-rule:evenodd;}</style></defs><title>logo-granja</title><g id="Layer_2" data-name="Layer 2"><g id="Layer_1-2" data-name="Layer 1"><path class="cls-1" d="M31.16,28c-.59,1.23-3.2,3.19-4.51,4C19.93,36.15,13.24,35,7.41,31A18.55,18.55,0,0,1,.68,20.83,23.38,23.38,0,0,1,1.8,6.34,7.57,7.57,0,0,0,4.15,7.55a6.47,6.47,0,0,0,3.23-.38L12.73,5.3c-.34.21-.8.42-1.15.61a12.53,12.53,0,0,0-1.15.74c-7.37,5.14-6.68,17.93-.34,22.78,4.5,3.44,9.14,3.73,14.45,2.06,3.8-1.28,5.21-2.25,6.62-3.45"/><path class="cls-1" d="M8.19,3.75l2.05-1.5A16.64,16.64,0,0,1,18.66,0,16.85,16.85,0,0,1,29.13,3.66a15.08,15.08,0,0,1,3.39,3.67,16.57,16.57,0,0,1,2.82,11.12c-.1.92-.84,4.79-1.65,5.61.16-.82.51-1.62.72-2.6a16.75,16.75,0,0,0-.51-8.78A17.1,17.1,0,0,0,10.41,2.53c-.81.36-1.58,1-2.22,1.22"/><path class="cls-1" d="M7.26,14.84c-.14,4.61,1.23,3.38,2,5.56a3.06,3.06,0,0,1,0,1.54c0,.79.19.82.24,1.67a5.79,5.79,0,0,0,.61,3.23l1.38.07c-.22-1.31-1.43-1-.75-3.49a7.38,7.38,0,0,1,.59-1.36L11.1,22a1.22,1.22,0,0,1-.53-.58,2,2,0,0,1,.09-2l0,0,.74-.86.11-.06a1.44,1.44,0,0,1,1.35-.06,2.22,2.22,0,0,1,.82.74l.07.08c.14,0,.6-.12.72-.14A11.13,11.13,0,0,1,16.07,19c.21,0,1.07,0,1.18-.26.34-.67.38-1.43.73-2.1a2.51,2.51,0,0,1,.71-.85c.54-.42,1.56-.8,2.16-.32a5,5,0,0,1,.88,1.61l.32,1L21.28,18l0,0a4.41,4.41,0,0,1,.34,1.6,4.89,4.89,0,0,1-.34,2.76,2.72,2.72,0,0,1-.3.41c0,1.21-.2,2.78.26,3.58s.82.69,1.87.65c-.72-2-1.27-.1-.47-4.15.44-2.23.89-2,2.73-2.92,2.58-1.3,2.06,0,4.21.19,1,.1,2.24,0,2.91,0,.48.06.6-.61.7-1.71-2.33-1.08-1-.77-1.94-2.64a4.48,4.48,0,0,0-1-1.45c-.15-.13,1.44-.52,1.18-.75-1.78-1.64-2.24.17-2.57.09-2.55-.59-3.42-2-6.88-2.32a51.74,51.74,0,0,0-8.77.15A10.74,10.74,0,0,0,7,14.41c-1.12.37-.36,3-.08,3.28.06-.91-.24-.07,0-2,.08-.58-.12-.47.34-.81"/><path class="cls-1" d="M16.62,26.66c.06-.07.09-.16.14-.24l-1,.17c-.06-1.43.21-1.66,1.46-1.9.9,1.39.19,1.9.13,2,.62-.05.17-.33.74,0,.27.15.47.38.8.17-.51-.4.26,0,.43,0,.56,0,.45,0,.41-.11-1.17-.53-1.34,0-1.06-.69-.41.06-.07.06-.47.06a2.13,2.13,0,0,1-.29-1.17,7.15,7.15,0,0,1,.51-1.15c.15-.14.75-.35,1.06-.6,1.31-1,1.58-1.25,1.43-3.49-.17-2.48-1-1.09-.5-2.44l.63,0A5.68,5.68,0,0,0,20.41,16c-.27-.21-1,.08-1.3.33-.85.65-.72,1.68-1.24,2.71s-2.37.55-3.24.7-1.07.33-1.48-.22c-.25-.34-.67-.81-1.27-.48l-.64.74a1.29,1.29,0,0,0-.05,1.26c.24.43.21.22.71.44,2.11.93.86.66,1.67,1.15.35.2.23,0,.62.52.27.4.27.57.55.8a9.71,9.71,0,0,0,.86.6c-.08,1.38-.05,1.52-.84,1.88.28.24,0-.15.9.55l.51.23c.42.09.45,0,.56-.07a2.25,2.25,0,0,1-.71-.31c.31-.09.32,0,.6-.19"/><path class="cls-1" d="M25.16,27.27c.09,0,.35.18.66.14.05,0-.35-.3-.31-.29.22,0,.55.54,1,.21-.38-.12-.47-.07-.75-.33a1.24,1.24,0,0,0-.29-.24c-.29-.12-.94,0-.31-.81a15.08,15.08,0,0,1,1.81-1.41c.44-.49.29-1.11.26-1.82s.32-.93.65-1.28c0,0,.33-.09.36-.13s-.34,0-.41-.11a1.43,1.43,0,0,0-2.31-.12c-.49.5-.37,1-.62,1.32s-1.9.65-2,2c-.07,1.13.75,1.28,1.29,2.14a.71.71,0,0,1,.07.16c.13.29.54.53,1.05.93l.14,0s-.34-.26-.28-.3"/></g></g></svg>