<svg xmlns="http://www.w3.org/2000/svg" viewBox="0 0 35.53 34.71"><defs><style>.cls-1{fill:#009fe2;fill-rule:evenodd;}</style></defs><title>logo-ganaderia</title><g id="Layer_2" data-name="Layer 2"><g id="Layer_1-2" data-name="Layer 1"><path class="cls-1" d="M12.09,11.11a7.91,7.91,0,0,0-2.89.54C8.32,12,6.83,13,8.25,13.74a5.66,5.66,0,0,0,4.87.15,13.82,13.82,0,0,0,.45,4.61c.56,1.77,1.36,2.4,1.53,3.52.22,1.51-.21,3.33.37,4.7a2.8,2.8,0,0,0,2.07,1.71,3.93,3.93,0,0,0,.52.11l.26,0,.16,0h.07s0,0,0,0,0,0,0,0h1.28A6.2,6.2,0,0,0,22,28.16a2.58,2.58,0,0,0,1.27-1.3c.64-1.35.24-3.18.41-4.71a4,4,0,0,1,.75-1.82,9.87,9.87,0,0,0,.78-1.78,14,14,0,0,0,.47-4.66,5.25,5.25,0,0,0,3,.43c1.09-.11,3.51-.83,2-2.09a7.2,7.2,0,0,0-4-1.13c-.55-.44-1.5-1.77-2.42-2.18a13.31,13.31,0,0,0-8.72-.37c-1.39.43-3.38,2.54-3.49,2.55"/><path class="cls-1" d="M31.24,28.11c-.59,1.24-3.2,3.2-4.52,4C20,36.24,13.27,35.11,7.43,31A18.59,18.59,0,0,1,.68,20.88,23.45,23.45,0,0,1,1.8,6.36,7.6,7.6,0,0,0,4.16,7.57,6.49,6.49,0,0,0,7.4,7.19l5.36-1.88c-.34.21-.8.43-1.15.61a12.52,12.52,0,0,0-1.16.75c-7.39,5.15-6.69,18-.34,22.84,4.51,3.45,9.17,3.74,14.48,2.06,3.81-1.29,5.22-2.25,6.64-3.46"/><path class="cls-1" d="M8.21,3.76l2.06-1.51A16.68,16.68,0,0,1,18.7,0,16.89,16.89,0,0,1,29.2,3.67a15.11,15.11,0,0,1,3.4,3.68A16.61,16.61,0,0,1,35.43,18.5c-.1.93-.84,4.81-1.65,5.63.16-.82.52-1.62.72-2.61A16.79,16.79,0,0,0,34,12.72,17.15,17.15,0,0,0,10.44,2.54c-.81.36-1.59,1-2.22,1.22"/></g></g></svg>