<svg xmlns="http://www.w3.org/2000/svg" viewBox="0 0 134.5 46.5"><defs><style>.cls-1,.cls-4{fill:#365c24;}.cls-1,.cls-2,.cls-3{fill-rule:evenodd;}.cls-2{fill:#f96712;}.cls-3{fill:#fff;}</style></defs><title>logo-green</title><g id="Layer_2" data-name="Layer 2"><g id="Layer_1-2" data-name="Layer 1"><path class="cls-1" d="M60.94,23.69,54.35,8.8a4,4,0,0,0,0-4.58,3.75,3.75,0,0,0-1.54,4.52c-3.65,4-7.6,7.61-13.34,8.79-.94-1.4-2.53-1.78-4.64-1.36a3.75,3.75,0,0,0,4,2.57l2.42,10.45a14.38,14.38,0,1,1,19.7-5.5M48.37,0a16.7,16.7,0,1,1-16.7,16.7A16.7,16.7,0,0,1,48.37,0Z"/><path class="cls-2" d="M53.43,10l6.7,15a14.39,14.39,0,0,1-17.51,4.9L40.08,18.67C45,17.47,49.42,14.36,53.43,10"/><path class="cls-3" d="M57.7,46.14h4.2V31.35H58.35v-.91L62,30l-.11-.67a11.63,11.63,0,0,0-3.06-6.56,8.65,8.65,0,0,0-6.31-2.37,8.85,8.85,0,0,0-7.84,4,16.69,16.69,0,0,0-2.56,9.42A14.73,14.73,0,0,0,44.8,43a8.51,8.51,0,0,0,7,3.5,7.06,7.06,0,0,0,5.18-2l.24-.24.1.32c.1.34.2.69.28,1Z"/><path class="cls-4" d="M61.26,32v13.5h-3A16.18,16.18,0,0,0,57.39,43a6.27,6.27,0,0,1-5.61,2.89,7.85,7.85,0,0,1-6.47-3.25q-2.54-3.25-2.54-8.8a16,16,0,0,1,2.45-9.06,8.21,8.21,0,0,1,7.3-3.67,8,8,0,0,1,5.86,2.18,10.91,10.91,0,0,1,2.88,6.21l-6,.7q-.45-3.75-2.8-3.75-3.09,0-3.09,6.91,0,4.18,1,5.51a2.92,2.92,0,0,0,2.39,1.33,2.62,2.62,0,0,0,1.94-.81,3.07,3.07,0,0,0,.81-2.22H52.08V32Zm-19.45.64V44.89H38V32.64ZM29.22,42.08h1a1.9,1.9,0,0,0,1.59-.91,4.19,4.19,0,0,0,.65-2.47,4.48,4.48,0,0,0-.57-2.32,1.83,1.83,0,0,0-1.66-1h-1Zm-3.8,2.81V32.64H30.2a5.76,5.76,0,0,1,4.66,1.83,6.37,6.37,0,0,1,1.55,4.24,6.16,6.16,0,0,1-1.66,4.47,5.73,5.73,0,0,1-4.31,1.72Zm-8.79-2.81h1a1.9,1.9,0,0,0,1.59-.91,4.19,4.19,0,0,0,.65-2.47,4.48,4.48,0,0,0-.57-2.32,1.83,1.83,0,0,0-1.66-1h-1Zm-3.8,2.81V32.64h4.78a5.76,5.76,0,0,1,4.66,1.83,6.37,6.37,0,0,1,1.55,4.24,6.16,6.16,0,0,1-1.66,4.47,5.73,5.73,0,0,1-4.31,1.72ZM4.49,39.8h2l-1-3.55Zm3.36,5.09-.68-2.41H3.8l-.73,2.41H0L3.82,32.64h4l3.89,12.25Zm96.89-3.56,3.49-.63a2.07,2.07,0,0,0,2.26,1.49q1.41,0,1.41-.75a.69.69,0,0,0-.33-.61,3.41,3.41,0,0,0-1.17-.39q-3.22-.62-4.13-1.61a3.35,3.35,0,0,1-.91-2.34,3.67,3.67,0,0,1,1.31-2.88,5.57,5.57,0,0,1,3.78-1.15q3.74,0,4.94,3l-3.1.94a1.91,1.91,0,0,0-2-1.23q-1.23,0-1.23.76a.6.6,0,0,0,.28.53,3.38,3.38,0,0,0,1.07.36,22.53,22.53,0,0,1,3.12.81,3.29,3.29,0,0,1,1.54,1.22,3.45,3.45,0,0,1,.62,2,3.63,3.63,0,0,1-1.51,3,6.32,6.32,0,0,1-4,1.16Q105.79,45.08,104.74,41.33Zm-.86,3.56h-3.07l-3.37-5.4a18,18,0,0,1-1.28-2.54,8.45,8.45,0,0,1,.3,2v5.94h-3V32.64H97l2.86,4.49a16.85,16.85,0,0,1,1.29,2.35,17.72,17.72,0,0,1-.29-3.22V32.64h3.07ZM91.28,32.64V44.89H87.51V32.64Zm-12,7.17h2l-1-3.55Zm3.33,5.09-.68-2.41H78.55l-.72,2.41H74.78l3.79-12.25h4L86.4,44.89ZM66.88,37.6h1.61a2,2,0,0,0,1.14-.3,1,1,0,0,0,.43-.88q0-1.18-1.45-1.18H66.88ZM74,44.89H69.84L68,40.21H66.88v4.69H63.12V32.64h6.4a4.94,4.94,0,0,1,3.29,1A3.26,3.26,0,0,1,74,36.25a3.94,3.94,0,0,1-.43,1.87,3.63,3.63,0,0,1-1.75,1.43Zm59.32-.23V43.48h1.16v1.19Zm-2.89-2.46-.85-2.29-.82,2.29Zm2.25,2.46h-1.33l-.53-1.41H128.4l-.51,1.41h-1.3l2.36-6.2h1.3Zm-7.86,0V43.48H126v1.19Zm-2.23-2.29,1.19.37a2.76,2.76,0,0,1-.91,1.52,2.55,2.55,0,0,1-1.62.5,2.6,2.6,0,0,1-2-.84,3.27,3.27,0,0,1-.78-2.31,3.43,3.43,0,0,1,.78-2.4,2.67,2.67,0,0,1,2.06-.86,2.5,2.5,0,0,1,1.81.67,2.46,2.46,0,0,1,.62,1.14l-1.22.29a1.32,1.32,0,0,0-.45-.76,1.28,1.28,0,0,0-.83-.28,1.37,1.37,0,0,0-1.1.49,2.45,2.45,0,0,0-.42,1.6,2.63,2.63,0,0,0,.42,1.67,1.34,1.34,0,0,0,1.08.5,1.22,1.22,0,0,0,.84-.32A1.85,1.85,0,0,0,122.6,42.38Zm-6.3,1.1h1.16v.85a3,3,0,0,1-.09.81,1.22,1.22,0,0,1-.33.54,1.69,1.69,0,0,1-.61.37l-.23-.49a1,1,0,0,0,.5-.33,1,1,0,0,0,.16-.57h-.56Z"/></g></g></svg>