<svg xmlns="http://www.w3.org/2000/svg" viewBox="0 0 35.89 35.06"><defs><style>.cls-1{fill:#f96712;}.cls-1,.cls-2{fill-rule:evenodd;}.cls-2{fill:#eb6502;}</style></defs><title>logo-lab</title><g id="Layer_2" data-name="Layer 2"><g id="Layer_1-2" data-name="Layer 1"><path class="cls-1" d="M31.55,28.4c-.6,1.25-3.24,3.23-4.57,4-6.8,4.16-13.58,3-19.48-1.09A18.78,18.78,0,0,1,.69,21.09,23.68,23.68,0,0,1,1.82,6.43,7.67,7.67,0,0,0,4.2,7.65a6.55,6.55,0,0,0,3.28-.39l5.42-1.89c-.34.21-.81.43-1.16.62a12.71,12.71,0,0,0-1.17.75c-7.47,5.2-6.76,18.16-.34,23.07,4.55,3.49,9.26,3.78,14.63,2.08,3.85-1.3,5.27-2.27,6.71-3.49"/><path class="cls-1" d="M8.3,3.79l2.08-1.52A16.85,16.85,0,0,1,18.89,0,17.07,17.07,0,0,1,29.5,3.71a15.27,15.27,0,0,1,3.43,3.72,16.78,16.78,0,0,1,2.86,11.26c-.1.94-.85,4.86-1.67,5.68.16-.83.52-1.64.73-2.63a17,17,0,0,0-.52-8.89A17.32,17.32,0,0,0,10.54,2.56c-.82.36-1.6,1-2.24,1.23"/><path class="cls-2" d="M30.05,23.86c-.31,1-1.12,2-1.19,2.53-.15,1.69,2.59,1.63,2.44,0-.07-.51-.94-1.57-1.26-2.53M10.54,15c2.59,1,4.6-.44,7.71-.51,3.49-.08,5.61,2.95,5.82,3.16L30,23.3l-.26.23-6.45-4.21A8.06,8.06,0,1,1,25,16.44l6.57,4.29-.14.21-7.07-4.43,0-.12h0l.06-.18,0-.1A7.19,7.19,0,1,0,10.54,15Z"/></g></g></svg>