<svg xmlns="http://www.w3.org/2000/svg" viewBox="0 0 35.57 34.75"><defs><style>.cls-1{fill:#009fe2;fill-rule:evenodd;}</style></defs><title>logo-adit</title><g id="Layer_2" data-name="Layer 2"><g id="Layer_1-2" data-name="Layer 1"><path class="cls-1" d="M31.28,28.15c-.59,1.24-3.21,3.2-4.53,4-6.74,4.13-13.46,3-19.31-1.08A18.62,18.62,0,0,1,.68,20.91,23.48,23.48,0,0,1,1.81,6.37,7.61,7.61,0,0,0,4.16,7.58,6.5,6.5,0,0,0,7.41,7.2l5.37-1.88c-.34.21-.8.43-1.15.61a12.64,12.64,0,0,0-1.16.75c-7.4,5.16-6.7,18-.34,22.87,4.51,3.46,9.18,3.75,14.5,2.06,3.81-1.29,5.23-2.25,6.65-3.46"/><path class="cls-1" d="M8.22,3.76l2.06-1.51A16.71,16.71,0,0,1,18.73,0,16.92,16.92,0,0,1,29.24,3.67a15.14,15.14,0,0,1,3.4,3.69,16.63,16.63,0,0,1,2.83,11.17c-.1.93-.84,4.81-1.65,5.64.16-.82.52-1.62.72-2.61A16.81,16.81,0,0,0,34,12.74,17.17,17.17,0,0,0,10.45,2.54c-.81.36-1.59,1-2.23,1.22"/><path class="cls-1" d="M16.82,9.5q-5.38,1.66-6.65,4.31a3.43,3.43,0,0,0-2.47,1.75A5,5,0,0,0,11,15.3Q15.47,18.05,22.84,17q.07,1.17,1.62,1.8a2.1,2.1,0,0,0,.9-1.93,7.49,7.49,0,0,0,4.09-3.33A2.84,2.84,0,0,0,31.74,13a1.84,1.84,0,0,0-2.34-1Q25.94,7.2,16.82,9.5m-5.37,6.64a5.16,5.16,0,0,0-1.17,1.54A3.43,3.43,0,0,0,7.8,19.44a5,5,0,0,0,3.28-.27q4.49,2.75,11.87,1.66Q23,22,24.57,22.63a2.1,2.1,0,0,0,.9-1.93,7.48,7.48,0,0,0,4.09-3.33,2.84,2.84,0,0,0,2.29-.49,1.84,1.84,0,0,0-2.34-1,7.61,7.61,0,0,0-.63-.76,8.3,8.3,0,0,1-3,2.05,2.53,2.53,0,0,1-1.11,2l-.22.15-.25-.1a2.91,2.91,0,0,1-1.84-1.7C18.75,18,14.79,17.89,11.45,16.14Zm-.7,3.72a5.73,5.73,0,0,0-.85,1.4,3.51,3.51,0,0,0-2.47,2A4.38,4.38,0,0,0,10.71,23q4.49,3.18,11.87,1.92A2.4,2.4,0,0,0,24.2,27a2.59,2.59,0,0,0,.9-2.23,7.84,7.84,0,0,0,4.09-3.85,2.55,2.55,0,0,0,2.29-.57q-.84-1.69-2.34-1.14L29,19A8.29,8.29,0,0,1,26,21a2.53,2.53,0,0,1-1.11,2l-.22.15-.25-.1a2.91,2.91,0,0,1-1.84-1.7c-3.87.51-8,.35-11.48-1.65Z"/></g></g></svg>