<svg xmlns="http://www.w3.org/2000/svg" viewBox="0 0 150.13 32.08"><defs><style>.cls-1{fill:#ec630e;fill-rule:evenodd;}.cls-2{fill:#fff;}</style></defs><title>suscribe</title><g id="Layer_2" data-name="Layer 2"><g id="Layer_1-2" data-name="Layer 1"><path class="cls-1" d="M42.74,8.06H144.68a5.47,5.47,0,0,1,5.45,5.45v6.84a5.48,5.48,0,0,1-5.45,5.45H42a18.77,18.77,0,0,0,.77-17.74m-37.29,0H9A18.77,18.77,0,0,0,9.74,25.8H5.45A5.47,5.47,0,0,1,0,20.35V13.51A5.46,5.46,0,0,1,5.45,8.06Z"/><path class="cls-2" d="M145.05,16h-3.37V14.46h3.58V12.41h-6.11v9.4h6.3V19.75h-3.78V18h3.38Zm-9.9,5.83h2.45l-.47-9.4h-3.32l-.7,2.51c-.28,1-.59,2.32-.85,3.46h-.06c-.2-1.14-.47-2.4-.73-3.44l-.63-2.52h-3.39l-.57,9.4h2.31l.14-3.36c0-1.07.1-2.47.15-3.79h0c.21,1.28.5,2.68.74,3.7l.8,3.26h2l.93-3.28c.31-1,.7-2.44,1-3.68h0c0,1.46,0,2.72,0,3.79ZM121,14.26a4.33,4.33,0,0,1,.85-.06c.84,0,1.3.4,1.3,1.12s-.54,1.17-1.49,1.17H121Zm-2.5,7.56H121V18.29h.4c.78,0,1.13.24,1.38,1.37a12.83,12.83,0,0,0,.66,2.16H126c-.18-.36-.49-1.73-.78-2.69a2.33,2.33,0,0,0-1.2-1.67v-.06a2.5,2.5,0,0,0,1.62-2.27,2.43,2.43,0,0,0-.93-2.05,5.27,5.27,0,0,0-3.18-.73,20.85,20.85,0,0,0-3,.2Zm-4.25-9.4v9.4h2.52v-9.4Zm-6.3,5.4h.6c.95,0,1.67.31,1.67,1.1s-.71,1.16-1.55,1.16a5.21,5.21,0,0,1-.73,0Zm0-3.61a4.79,4.79,0,0,1,.82-.06c.85,0,1.27.35,1.27.91s-.52,1-1.59,1h-.5Zm-2.5,7.56a15.87,15.87,0,0,0,2.48.17,6.5,6.5,0,0,0,3.89-.85,2.52,2.52,0,0,0,1-2.05A2.31,2.31,0,0,0,111,16.74v0a2.07,2.07,0,0,0,.27-3.9,6,6,0,0,0-2.87-.46,21.34,21.34,0,0,0-3,.2Zm-4.25-9.34v9.4h2.52v-9.4Zm-6.11,1.84a4.33,4.33,0,0,1,.85-.06c.84,0,1.3.4,1.3,1.12s-.54,1.17-1.49,1.17h-.66Zm-2.5,7.56h2.5V18.29h.4c.78,0,1.13.24,1.38,1.37a12.83,12.83,0,0,0,.66,2.16h2.58c-.18-.36-.49-1.73-.78-2.69a2.33,2.33,0,0,0-1.2-1.67v-.06a2.5,2.5,0,0,0,1.62-2.27,2.43,2.43,0,0,0-.93-2.05,5.27,5.27,0,0,0-3.18-.73,20.85,20.85,0,0,0-3,.2Zm-1.7-2.22a5.19,5.19,0,0,1-1.69.28,2.54,2.54,0,0,1-2.75-2.78,2.54,2.54,0,0,1,2.71-2.78,4.59,4.59,0,0,1,1.74.33l.49-2A5.65,5.65,0,0,0,89,12.26c-2.8,0-5.23,1.69-5.23,5,0,2.5,1.55,4.7,5.06,4.7a6.36,6.36,0,0,0,2.37-.39ZM76,21.38a6.63,6.63,0,0,0,2.76.59c2.75,0,4-1.39,4-3,0-1.31-.77-2.22-2.45-2.83-1.19-.45-1.69-.64-1.69-1.12s.42-.7,1.19-.7a4.91,4.91,0,0,1,2,.45l.53-2a6.08,6.08,0,0,0-2.55-.49c-2.37,0-3.77,1.28-3.77,2.94,0,1.39,1,2.27,2.64,2.83,1.06.36,1.48.63,1.48,1.09s-.42.77-1.28.77a5.71,5.71,0,0,1-2.44-.59Zm-6-3.57h.6c.95,0,1.67.31,1.67,1.1s-.71,1.16-1.55,1.16a5.21,5.21,0,0,1-.73,0Zm0-3.61a4.79,4.79,0,0,1,.82-.06c.85,0,1.27.35,1.27.91s-.52,1-1.59,1h-.5Zm-2.5,7.56a15.87,15.87,0,0,0,2.48.17,6.5,6.5,0,0,0,3.89-.85A2.52,2.52,0,0,0,75,19a2.31,2.31,0,0,0-1.84-2.29v0a2.07,2.07,0,0,0,.27-3.9,6,6,0,0,0-2.87-.46,21.34,21.34,0,0,0-3,.2Zm-9.73-9.34v5.12c0,3,1.35,4.43,3.93,4.43s4.09-1.46,4.09-4.37V12.41H63.31v5.33c0,1.49-.49,2.23-1.49,2.23s-1.48-.81-1.48-2.23V12.41Zm-8.12,9a6.63,6.63,0,0,0,2.76.59c2.75,0,4-1.39,4-3,0-1.31-.77-2.22-2.45-2.83-1.19-.45-1.69-.64-1.69-1.12s.42-.7,1.19-.7a4.91,4.91,0,0,1,2,.45l.53-2a6.08,6.08,0,0,0-2.55-.49c-2.37,0-3.77,1.28-3.77,2.94,0,1.39,1,2.27,2.64,2.83,1.06.36,1.48.63,1.48,1.09s-.42.77-1.28.77a5.71,5.71,0,0,1-2.44-.59Z"/><path class="cls-1" d="M36.7,16,27.77,21.2l-8.93,5.16V5.73l8.93,5.16Zm-11-16a16,16,0,1,1-16,16A16,16,0,0,1,25.75,0Z"/></g></g></svg>