<svg xmlns="http://www.w3.org/2000/svg" xmlns:xlink="http://www.w3.org/1999/xlink" viewBox="0 0 19.34 19.34"><defs><style>.cls-1{fill:none;clip-rule:evenodd;}.cls-2{fill:#009fe2;}.cls-2,.cls-4{fill-rule:evenodd;}.cls-3{clip-path:url(#clip-path);}.cls-4{fill:#fff;}</style><clipPath id="clip-path"><path class="cls-1" d="M3.33,0H16a3.34,3.34,0,0,1,3.33,3.33V16A3.34,3.34,0,0,1,16,19.34H3.33A3.34,3.34,0,0,1,0,16V3.33A3.34,3.34,0,0,1,3.33,0"/></clipPath></defs><title>twitter</title><g id="Layer_2" data-name="Layer 2"><g id="Layer_1-2" data-name="Layer 1"><path class="cls-2" d="M3.33,0H16a3.34,3.34,0,0,1,3.33,3.33V16A3.34,3.34,0,0,1,16,19.34H3.33A3.34,3.34,0,0,1,0,16V3.33A3.34,3.34,0,0,1,3.33,0"/><g class="cls-3"><path class="cls-4" d="M9.55,7.33A8.56,8.56,0,0,1,7.49,7,8.7,8.7,0,0,1,3.74,4.73c-.31-.3-.35-.4-.58-.63l0,0a3.33,3.33,0,0,0-.36,1,3.2,3.2,0,0,0,.56,2.32,5.26,5.26,0,0,0,.74.73,2.48,2.48,0,0,1-.73-.11c-.27-.08-.54-.22-.63-.24a3.08,3.08,0,0,0,.72,2,3,3,0,0,0,.73.63,3,3,0,0,0,.92.39h0l0,0a.81.81,0,0,1-.28.07,3.54,3.54,0,0,1-1,0,3,3,0,0,0,1,1.48,3.16,3.16,0,0,0,1.84.66,4.25,4.25,0,0,1-.87.59,6,6,0,0,1-1,.44,6.39,6.39,0,0,1-1.91.3c-.23,0-.51,0-.72,0l.22.13a9,9,0,0,0,9.19,0,8.61,8.61,0,0,0,3-3.1,9.1,9.1,0,0,0,1.2-4.84,3.56,3.56,0,0,1,.42-.35,6.4,6.4,0,0,0,.77-.78c.11-.13.22-.32.34-.45-.08,0-.64.21-.79.26a4.4,4.4,0,0,1-.91.17,5.2,5.2,0,0,0,.78-.71,3.09,3.09,0,0,0,.51-1,4.89,4.89,0,0,0-.53.26,7,7,0,0,1-1.18.41c-.36.08-.2,0-.52-.2A3.1,3.1,0,0,0,9.48,6.57c0,.29.05.49.07.76"/></g></g></g></svg>